<?xml version="1.0" encoding="utf-8"?>
<!-- Generator: Adobe Illustrator 21.0.0, SVG Export Plug-In . SVG Version: 6.00 Build 0)  -->
<svg version="1.1" id="Слой_1" xmlns="http://www.w3.org/2000/svg" xmlns:xlink="http://www.w3.org/1999/xlink" x="0px" y="0px"
	 viewBox="0 0 267.505 55" enable-background="new 0 0 267.505 55" xml:space="preserve">
<g>
	<g>
		<path fill="#848484" d="M19.753,2C24.3,2,28,5.7,28,10.247v6.642H11v-6.642C11,5.7,14.7,2,19.247,2H19.753 M19.753,0h-0.506
			C13.611,0,9,4.611,9,10.247v7.503c0,0.626,0.512,1.139,1.139,1.139h18.723c0.626,0,1.139-0.512,1.139-1.139v-7.503
			C30,4.611,25.389,0,19.753,0L19.753,0z"/>
	</g>
</g>
<path fill="#B2B2B2" d="M28,0c-0.974,0-1.914,0.148-2.807,0.41c0.805,0.447,1.545,0.996,2.214,1.62C27.604,2.016,27.8,2,28,2
	c4.411,0,8,3.589,8,8v6.889h-5v0.862c0,0.419-0.126,0.808-0.335,1.138h6.224c0.611,0,1.111-0.5,1.111-1.111V10C38,4.5,33.5,0,28,0z"
	/>
<path fill="#B2B2B2" d="M18,15.889h2V10c0-2.515,1.169-4.76,2.99-6.228c-0.676-0.339-1.411-0.574-2.187-0.687
	C19.073,4.885,18,7.321,18,10V15.889z"/>
<path fill="#3D8214" d="M41.518,13H7.813c-1.371,0-2.482,1.145-2.482,2.558v36.885C5.331,53.855,6.442,55,7.813,55h33.705
	C42.889,55,44,53.855,44,52.442V15.558C44,14.145,42.889,13,41.518,13z"/>
<path fill="#FAFAFA" d="M41.137,15.481h-6.27V52.5h6.27c0.477,0,0.863-0.417,0.863-0.931V16.412
	C42,15.898,41.614,15.481,41.137,15.481z"/>
<path fill="#62AB02" d="M36.497,13H2.503C1.121,13,0,14.145,0,15.558v36.885C0,53.855,1.121,55,2.503,55h33.994
	C37.879,55,39,53.855,39,52.442V15.558C39,14.145,37.879,13,36.497,13z"/>
<path fill="#CECECE" d="M40.5,18.873c-0.276,0-0.5,0.179-0.5,0.399V48.71c0,0.22,0.224,0.399,0.5,0.399c0.276,0,0.5-0.179,0.5-0.399
	V19.272C41,19.051,40.776,18.873,40.5,18.873z"/>
<path fill="#86BF17" d="M28.5,40h-18c-0.275,0-0.5-0.225-0.5-0.5l0,0c0-0.275,0.225-0.5,0.5-0.5h18c0.275,0,0.5,0.225,0.5,0.5l0,0
	C29,39.775,28.775,40,28.5,40z"/>
<path fill="#86BF17" d="M26.5,42h-14c-0.275,0-0.5-0.225-0.5-0.5l0,0c0-0.275,0.225-0.5,0.5-0.5h14c0.275,0,0.5,0.225,0.5,0.5l0,0
	C27,41.775,26.775,42,26.5,42z"/>
<path fill="#86BF17" d="M28,37H11c-0.55,0-1-0.45-1-1v-7c0-0.55,0.45-1,1-1h17c0.55,0,1,0.45,1,1v7C29,36.55,28.55,37,28,37z"/>
<polygon fill="#3D8214" points="14,30.604 9,26.969 4,30.604 4,13 14,13 "/>
<polygon fill="#FFAA22" points="13,30.604 8,26.969 3,30.604 3,13 13,13 "/>
<rect x="3" y="13" fill="#E59013" width="10" height="5"/>
<g>
	<path fill="#333333" d="M72.894,17.946c2.214,0,4.099,0.206,5.654,0.616s2.823,0.99,3.806,1.738
		c0.982,0.748,1.697,1.658,2.145,2.728c0.447,1.071,0.671,2.266,0.671,3.586c0,0.719-0.103,1.412-0.308,2.079
		c-0.206,0.667-0.528,1.291-0.968,1.87c-0.44,0.58-1.005,1.111-1.694,1.595c-0.69,0.484-1.518,0.902-2.486,1.254
		c2.112,0.514,3.674,1.342,4.686,2.486c1.012,1.144,1.518,2.625,1.518,4.444c0,1.364-0.264,2.633-0.792,3.806
		c-0.528,1.174-1.302,2.197-2.321,3.069c-1.02,0.873-2.277,1.555-3.773,2.046C77.536,49.754,75.827,50,73.906,50H61.102V17.946
		H72.894z M68.538,23.512v7.92h3.872c0.821,0,1.562-0.059,2.222-0.176c0.66-0.117,1.221-0.322,1.683-0.616s0.814-0.697,1.056-1.21
		c0.242-0.513,0.363-1.159,0.363-1.936c0-0.763-0.095-1.397-0.286-1.903c-0.191-0.506-0.484-0.913-0.88-1.221
		s-0.898-0.528-1.507-0.66c-0.609-0.132-1.331-0.198-2.167-0.198H68.538z M73.774,44.39c0.982,0,1.786-0.125,2.409-0.374
		c0.623-0.25,1.111-0.572,1.463-0.968s0.594-0.843,0.726-1.342s0.198-1.004,0.198-1.518c0-0.586-0.077-1.114-0.231-1.584
		c-0.154-0.469-0.418-0.865-0.792-1.188c-0.374-0.322-0.869-0.572-1.485-0.748c-0.616-0.176-1.394-0.264-2.332-0.264h-5.192v7.986
		H73.774z"/>
	<path fill="#333333" d="M99.977,26.834c1.73,0,3.307,0.271,4.73,0.814c1.422,0.543,2.643,1.32,3.663,2.332
		c1.019,1.012,1.811,2.241,2.376,3.685c0.564,1.445,0.847,3.069,0.847,4.873c0,1.819-0.282,3.458-0.847,4.917
		c-0.565,1.459-1.357,2.699-2.376,3.718c-1.02,1.02-2.241,1.804-3.663,2.354c-1.423,0.55-3,0.825-4.73,0.825
		c-1.746,0-3.333-0.275-4.763-0.825c-1.43-0.55-2.662-1.334-3.696-2.354c-1.034-1.019-1.834-2.258-2.398-3.718
		c-0.565-1.459-0.847-3.098-0.847-4.917c0-1.804,0.282-3.428,0.847-4.873c0.564-1.444,1.364-2.673,2.398-3.685
		c1.034-1.012,2.266-1.789,3.696-2.332C96.644,27.105,98.231,26.834,99.977,26.834z M99.977,45.292c1.569,0,2.724-0.553,3.465-1.661
		c0.74-1.107,1.111-2.79,1.111-5.049c0-2.258-0.371-3.938-1.111-5.038c-0.741-1.1-1.896-1.65-3.465-1.65
		c-1.614,0-2.794,0.55-3.542,1.65s-1.122,2.78-1.122,5.038c0,2.259,0.374,3.942,1.122,5.049
		C97.183,44.739,98.363,45.292,99.977,45.292z"/>
	<path fill="#333333" d="M125.54,26.834c1.73,0,3.307,0.271,4.73,0.814c1.422,0.543,2.643,1.32,3.663,2.332
		c1.019,1.012,1.811,2.241,2.376,3.685c0.564,1.445,0.847,3.069,0.847,4.873c0,1.819-0.282,3.458-0.847,4.917
		c-0.565,1.459-1.357,2.699-2.376,3.718c-1.02,1.02-2.241,1.804-3.663,2.354c-1.423,0.55-3,0.825-4.73,0.825
		c-1.746,0-3.333-0.275-4.763-0.825c-1.43-0.55-2.662-1.334-3.696-2.354c-1.034-1.019-1.834-2.258-2.398-3.718
		c-0.565-1.459-0.847-3.098-0.847-4.917c0-1.804,0.282-3.428,0.847-4.873c0.564-1.444,1.364-2.673,2.398-3.685
		c1.034-1.012,2.266-1.789,3.696-2.332C122.207,27.105,123.794,26.834,125.54,26.834z M125.54,45.292
		c1.569,0,2.724-0.553,3.465-1.661c0.74-1.107,1.111-2.79,1.111-5.049c0-2.258-0.371-3.938-1.111-5.038
		c-0.741-1.1-1.896-1.65-3.465-1.65c-1.614,0-2.794,0.55-3.542,1.65s-1.122,2.78-1.122,5.038c0,2.259,0.374,3.942,1.122,5.049
		C122.746,44.739,123.926,45.292,125.54,45.292z"/>
	<path fill="#333333" d="M147.408,17.066v18.458h1.012c0.426,0,0.748-0.062,0.969-0.187c0.219-0.125,0.439-0.333,0.658-0.627
		l4.313-6.424c0.264-0.367,0.564-0.642,0.902-0.825c0.338-0.183,0.77-0.275,1.299-0.275h6.248l-5.896,8.118
		c-0.559,0.733-1.219,1.334-1.98,1.804c0.338,0.25,0.645,0.539,0.924,0.869s0.543,0.701,0.793,1.111L163.072,50h-6.16
		c-0.514,0-0.953-0.084-1.32-0.253c-0.367-0.168-0.674-0.465-0.924-0.891l-4.313-8.074c-0.205-0.367-0.418-0.605-0.637-0.715
		c-0.221-0.11-0.551-0.165-0.99-0.165h-1.32V50h-6.82V17.066H147.408z"/>
	<path fill="#62AB02" d="M183.663,24.458c-0.22,0.352-0.45,0.616-0.692,0.792s-0.554,0.264-0.936,0.264
		c-0.337,0-0.7-0.106-1.089-0.319c-0.389-0.212-0.828-0.451-1.319-0.715c-0.492-0.264-1.053-0.502-1.684-0.715
		s-1.35-0.319-2.156-0.319c-1.394,0-2.431,0.297-3.112,0.891c-0.683,0.594-1.023,1.397-1.023,2.409c0,0.646,0.205,1.181,0.616,1.606
		c0.41,0.425,0.949,0.792,1.617,1.1c0.667,0.308,1.43,0.59,2.288,0.847c0.857,0.257,1.734,0.543,2.629,0.858
		s1.771,0.686,2.629,1.111c0.857,0.425,1.62,0.968,2.288,1.628c0.667,0.66,1.206,1.463,1.617,2.409
		c0.41,0.946,0.615,2.086,0.615,3.421c0,1.481-0.257,2.868-0.77,4.158c-0.514,1.291-1.258,2.417-2.233,3.377
		s-2.178,1.716-3.607,2.266c-1.431,0.55-3.055,0.825-4.873,0.825c-0.998,0-2.014-0.103-3.047-0.308
		c-1.034-0.205-2.035-0.495-3.003-0.869c-0.969-0.374-1.878-0.817-2.729-1.331c-0.851-0.514-1.592-1.085-2.222-1.716l2.2-3.476
		c0.176-0.249,0.406-0.458,0.692-0.627c0.286-0.168,0.598-0.253,0.936-0.253c0.439,0,0.883,0.14,1.331,0.418
		c0.447,0.279,0.953,0.587,1.518,0.924c0.564,0.338,1.214,0.646,1.947,0.924c0.733,0.279,1.599,0.418,2.596,0.418
		c1.35,0,2.398-0.297,3.146-0.891c0.748-0.594,1.121-1.536,1.121-2.827c0-0.748-0.205-1.356-0.615-1.826
		c-0.411-0.469-0.95-0.858-1.617-1.166c-0.668-0.308-1.427-0.579-2.277-0.814c-0.851-0.234-1.724-0.495-2.618-0.781
		c-0.895-0.286-1.768-0.638-2.617-1.056c-0.852-0.418-1.61-0.968-2.277-1.65c-0.668-0.682-1.207-1.532-1.617-2.552
		c-0.411-1.019-0.616-2.277-0.616-3.773c0-1.203,0.242-2.376,0.727-3.52c0.483-1.144,1.195-2.163,2.134-3.058
		c0.938-0.895,2.09-1.609,3.454-2.145c1.364-0.535,2.926-0.803,4.686-0.803c0.982,0,1.939,0.077,2.871,0.231
		c0.932,0.154,1.815,0.381,2.651,0.682c0.836,0.301,1.617,0.66,2.343,1.078c0.727,0.418,1.375,0.891,1.947,1.419L183.663,24.458z"/>
	<path fill="#62AB02" d="M196.73,50.352c-1.085,0-2.042-0.158-2.871-0.473c-0.828-0.315-1.525-0.762-2.09-1.342
		c-0.564-0.579-0.993-1.28-1.287-2.101c-0.293-0.821-0.439-1.738-0.439-2.75V31.894h-1.937c-0.352,0-0.652-0.113-0.901-0.341
		c-0.25-0.228-0.374-0.561-0.374-1.001V27.89l3.63-0.704l1.342-5.566c0.176-0.704,0.675-1.056,1.496-1.056h3.563v6.666h5.654v4.664
		h-5.654v11.33c0,0.528,0.129,0.964,0.386,1.309c0.256,0.345,0.627,0.517,1.11,0.517c0.25,0,0.459-0.025,0.627-0.077
		c0.169-0.051,0.315-0.11,0.44-0.176c0.124-0.066,0.242-0.125,0.352-0.176c0.11-0.051,0.238-0.077,0.386-0.077
		c0.205,0,0.37,0.048,0.495,0.143c0.124,0.096,0.253,0.246,0.385,0.451l2.067,3.234c-0.88,0.66-1.869,1.155-2.97,1.485
		C199.041,50.187,197.904,50.352,196.73,50.352z"/>
	<path fill="#62AB02" d="M215.761,26.834c1.73,0,3.307,0.271,4.729,0.814c1.423,0.543,2.644,1.32,3.663,2.332
		s1.812,2.241,2.376,3.685c0.564,1.445,0.848,3.069,0.848,4.873c0,1.819-0.283,3.458-0.848,4.917s-1.356,2.699-2.376,3.718
		c-1.02,1.02-2.24,1.804-3.663,2.354c-1.423,0.55-2.999,0.825-4.729,0.825c-1.746,0-3.333-0.275-4.763-0.825
		c-1.431-0.55-2.662-1.334-3.696-2.354c-1.034-1.019-1.834-2.258-2.398-3.718s-0.847-3.098-0.847-4.917
		c0-1.804,0.282-3.428,0.847-4.873c0.564-1.444,1.364-2.673,2.398-3.685s2.266-1.789,3.696-2.332
		C212.428,27.105,214.015,26.834,215.761,26.834z M215.761,45.292c1.569,0,2.724-0.553,3.465-1.661
		c0.74-1.107,1.111-2.79,1.111-5.049c0-2.258-0.371-3.938-1.111-5.038c-0.741-1.1-1.896-1.65-3.465-1.65
		c-1.613,0-2.794,0.55-3.542,1.65s-1.122,2.78-1.122,5.038c0,2.259,0.374,3.942,1.122,5.049
		C212.967,44.739,214.147,45.292,215.761,45.292z"/>
	<path fill="#62AB02" d="M237.189,30.706c0.703-1.232,1.514-2.2,2.431-2.904c0.916-0.704,1.969-1.056,3.157-1.056
		c1.026,0,1.862,0.242,2.508,0.726l-0.44,5.016c-0.073,0.323-0.194,0.543-0.362,0.66c-0.169,0.118-0.4,0.176-0.693,0.176
		c-0.117,0-0.271-0.007-0.462-0.022c-0.19-0.014-0.389-0.033-0.594-0.055c-0.206-0.022-0.415-0.044-0.627-0.066
		c-0.213-0.022-0.407-0.033-0.583-0.033c-0.998,0-1.793,0.264-2.388,0.792c-0.594,0.528-1.097,1.262-1.507,2.2V50h-6.82V27.186
		h4.049c0.337,0,0.619,0.029,0.847,0.088c0.228,0.059,0.418,0.151,0.572,0.275c0.153,0.125,0.271,0.29,0.352,0.495
		c0.08,0.206,0.15,0.455,0.209,0.748L237.189,30.706z"/>
	<path fill="#62AB02" d="M252.809,39.814c0.22,1.907,0.799,3.289,1.738,4.147c0.938,0.858,2.148,1.287,3.63,1.287
		c0.792,0,1.474-0.095,2.046-0.286c0.572-0.19,1.081-0.403,1.529-0.638c0.447-0.235,0.857-0.447,1.231-0.638
		c0.374-0.19,0.767-0.286,1.178-0.286c0.542,0,0.953,0.198,1.231,0.594l1.98,2.442c-0.704,0.807-1.463,1.463-2.277,1.969
		c-0.814,0.506-1.65,0.902-2.508,1.188c-0.858,0.286-1.716,0.484-2.574,0.594s-1.676,0.165-2.453,0.165
		c-1.599,0-3.099-0.261-4.499-0.781c-1.4-0.52-2.625-1.294-3.674-2.321c-1.049-1.026-1.878-2.302-2.486-3.828
		c-0.608-1.525-0.913-3.3-0.913-5.324c0-1.525,0.261-2.97,0.781-4.334c0.521-1.364,1.269-2.56,2.244-3.586
		c0.976-1.027,2.156-1.841,3.542-2.442c1.386-0.601,2.951-0.902,4.697-0.902c1.51,0,2.893,0.235,4.146,0.704
		s2.332,1.151,3.234,2.046c0.902,0.895,1.605,1.991,2.112,3.289c0.506,1.298,0.759,2.769,0.759,4.411
		c0,0.513-0.022,0.931-0.066,1.254s-0.125,0.58-0.242,0.77c-0.117,0.191-0.274,0.323-0.473,0.396s-0.451,0.11-0.759,0.11H252.809z
		 M261.389,35.854c0-0.542-0.069-1.07-0.209-1.584c-0.14-0.513-0.367-0.972-0.682-1.375c-0.316-0.403-0.73-0.729-1.243-0.979
		c-0.514-0.249-1.137-0.374-1.87-0.374c-1.291,0-2.303,0.371-3.036,1.111c-0.733,0.741-1.218,1.808-1.452,3.201H261.389z"/>
</g>
</svg>
